<?xml version="1.0" standalone="no"?>
<!DOCTYPE svg PUBLIC "-//W3C//DTD SVG 20010904//EN"
 "http://www.w3.org/TR/2001/REC-SVG-20010904/DTD/svg10.dtd">
<svg version="1.0" xmlns="http://www.w3.org/2000/svg"
 width="1200.000000pt" height="1200.000000pt" viewBox="0 0 1200.000000 1200.000000"
 preserveAspectRatio="xMidYMid meet">
<metadata>
Created by potrace 1.14, written by Peter Selinger 2001-2017
</metadata>
<g transform="translate(0.000000,1200.000000) scale(0.100000,-0.100000)"
fill="#000000" stroke="none">
<path d="M5765 11985 c-108 -20 -261 -69 -359 -115 -134 -62 -4359 -2384
-4443 -2442 -111 -75 -286 -253 -362 -367 -114 -172 -192 -366 -225 -560 -14
-85 -16 -340 -16 -2501 0 -2668 -5 -2481 66 -2700 99 -309 299 -574 569 -755
61 -41 2659 -1471 4195 -2309 361 -197 534 -243 863 -233 227 7 361 38 552
126 126 59 4332 2368 4411 2423 262 180 454 434 553 733 76 232 71 29 71 2715
0 2686 5 2483 -71 2715 -101 304 -296 560 -564 740 -88 59 -4244 2342 -4390
2411 -100 48 -208 85 -318 110 -103 23 -425 28 -532 9z m354 -480 c153 -11
168 -19 1593 -801 739 -405 1712 -939 2163 -1187 451 -247 847 -469 880 -492
69 -49 187 -169 233 -236 92 -135 148 -297 162 -468 13 -156 13 -4486 0 -4642
-14 -170 -71 -333 -163 -469 -45 -66 -163 -186 -232 -235 -33 -23 -244 -144
-470 -268 -225 -123 -1175 -644 -2110 -1157 -935 -513 -1736 -950 -1780 -971
-141 -66 -227 -84 -405 -83 -178 1 -259 18 -395 82 -99 48 -4201 2297 -4305
2360 -89 55 -206 164 -265 247 -105 147 -160 306 -176 510 -6 84 -9 939 -7
2405 4 2456 1 2299 53 2455 68 204 222 400 400 510 117 71 4303 2365 4355
2385 104 41 288 73 370 64 14 -2 58 -6 99 -9z"/>
<path d="M5899 10773 c-136 -69 -169 -232 -74 -366 168 -237 233 -419 242
-682 11 -303 -59 -523 -274 -863 -152 -240 -257 -485 -298 -693 -26 -132 -31
-346 -11 -470 33 -195 108 -376 227 -543 101 -141 183 -196 292 -196 142 0
247 106 247 249 0 85 -16 116 -100 201 -133 134 -190 279 -190 485 0 230 74
435 259 725 163 255 259 479 313 726 20 97 23 135 23 339 0 257 -13 340 -81
543 -65 196 -201 426 -302 513 -77 66 -181 78 -273 32z"/>
<path d="M7335 9951 c-110 -27 -178 -117 -178 -237 -1 -55 5 -74 55 -175 63
-126 82 -179 104 -283 53 -250 6 -512 -140 -791 -163 -311 -227 -558 -213
-824 15 -292 154 -584 312 -657 58 -28 156 -32 209 -10 92 38 150 126 151 226
0 69 -7 86 -90 203 -44 62 -73 142 -87 240 -24 166 25 353 160 623 45 87 96
204 115 260 145 418 116 857 -80 1236 -26 51 -64 109 -85 130 -55 55 -149 79
-233 59z"/>
<path d="M4581 9939 c-90 -18 -160 -88 -181 -182 -15 -68 -4 -121 45 -212 90
-168 130 -326 130 -510 -1 -210 -39 -343 -176 -615 -97 -195 -136 -297 -171
-451 -19 -88 -23 -131 -22 -274 1 -151 4 -181 27 -270 57 -211 171 -390 282
-441 56 -27 157 -32 216 -13 43 15 95 63 120 111 46 90 31 185 -43 273 -124
150 -149 378 -67 628 16 51 68 169 114 262 131 265 186 447 205 683 25 309
-57 661 -212 903 -56 88 -159 130 -267 108z"/>
<path d="M5814 6723 l-3172 -3 -6 -43 c-22 -160 -46 -686 -46 -1017 0 -724 72
-1412 206 -1955 164 -665 404 -1132 756 -1471 125 -120 251 -208 401 -279 134
-63 205 -88 352 -123 l110 -26 1470 -3 c1026 -3 1496 -1 1555 7 563 73 1011
416 1321 1013 91 178 130 270 200 477 l59 175 92 8 c764 63 1199 471 1314
1230 34 227 28 749 -12 992 -87 530 -425 880 -962 996 -75 16 -139 21 -282 23
-102 1 -1612 1 -3356 -1z m2972 -610 c12 -189 9 -911 -5 -1113 -57 -848 -191
-1446 -426 -1910 -219 -431 -495 -677 -864 -771 -41 -10 -133 -23 -205 -29
-174 -13 -2518 -13 -2692 0 -272 21 -477 104 -676 274 -159 136 -284 308 -408
561 -239 487 -369 1103 -420 1990 -11 190 -13 915 -3 1043 l6 82 2842 0 2843
0 8 -127z m620 97 c43 -11 122 -41 174 -66 208 -103 320 -278 367 -576 25
-161 26 -669 1 -808 -26 -144 -64 -265 -116 -370 -37 -77 -62 -111 -127 -176
-92 -93 -175 -143 -303 -184 -82 -27 -238 -57 -246 -49 -2 2 7 63 20 136 31
175 70 490 91 743 14 164 18 321 18 787 l0 583 21 0 c11 0 56 -9 100 -20z"/>
</g>
</svg>
