<?xml version="1.0" encoding="UTF-8"?>
<svg width="1200pt" height="1200pt" version="1.1" viewBox="0 0 1200 1200" xmlns="http://www.w3.org/2000/svg">
 <g>
  <path d="m1089.6 248.4-258-141.6-162-88.801c-43.199-24-94.801-24-138 0l-420 230.4c-46.801 25.203-75.602 73.203-75.602 126v451.2c0 52.801 28.801 100.8 74.398 126l75.602 42 344.4 188.4c21.602 12 45.602 18 69.602 18s48-6 69.602-18l420-230.4c45.602-25.199 74.398-73.199 74.398-126v-451.2c0-52.797-28.801-100.8-74.398-126zm26.398 577.2c0 34.801-19.199 67.199-50.398 84l-420 230.4c-28.801 15.602-63.602 15.602-92.398 0l-344.4-188.4-75.602-42c-31.199-16.801-49.199-49.199-49.199-84v-451.2c0-34.801 19.199-67.199 49.199-84l420-230.4c28.801-15.602 63.602-15.602 92.398 0l162 88.801 258 141.6c31.199 16.801 50.398 49.199 50.398 84z"/>
  <path d="m600 276c-139.2 0-252 111.6-252 249.6 0 109.2 153.6 319.2 219.6 405.6 8.3984 10.797 20.398 16.797 32.398 16.797 7.1992 0 14.398-2.3984 21.602-6 3.6016-2.3984 7.1992-6 10.801-9.6016 65.996-87.598 219.6-297.6 219.6-406.8 0-67.199-26.398-129.6-74.398-176.4-46.801-46.805-110.4-73.203-177.6-73.203zm0 618c-99.602-130.8-204-292.8-204-368.4 0-111.6 91.199-201.6 204-201.6 54 0 105.6 21.602 144 58.801 38.398 38.398 60 88.801 60 142.8 0 75.598-104.4 238.8-204 368.4z"/>
  <path d="m649.2 651.6h-94.801c-13.199 0-24 10.801-24 24 0 13.199 10.801 24 24 24h94.801c13.199 0 24-10.801 24-24 0-13.203-10.801-24-24-24z"/>
  <path d="m649.2 705.6h-94.801c-13.199 0-24 10.801-24 24 0 13.199 10.801 24 24 24h94.801c13.199 0 24-10.801 24-24 0-13.203-10.801-24-24-24z"/>
  <path d="m606 390h-2.3984-3.6016-2.3984c-70.801 2.3984-110.4 45.602-117.6 73.199-21.602 73.199 48 160.8 55.199 170.4 4.8008 6 10.801 8.3984 18 8.3984h96c7.1992 0 14.398-3.6016 18-8.3984 8.3984-9.6016 76.801-97.199 55.199-170.4-7.1992-27.598-45.598-70.801-116.4-73.199zm31.199 205.2h-12v-37.199c0-13.199-10.801-24-24-24s-24 10.801-24 24v37.199h-12c-19.199-26.398-50.398-80.398-39.602-117.6 2.3984-7.1992 22.801-38.398 75.602-38.398 54 1.1992 74.398 31.199 75.602 38.398 10.801 36.004-20.402 90.004-39.602 117.6z"/>
 </g>
</svg>
