<?xml version="1.0" encoding="UTF-8"?>
<svg width="1200pt" height="1200pt" version="1.1" viewBox="0 0 1200 1200" xmlns="http://www.w3.org/2000/svg">
 <g>
  <path d="m600 1200c-24 0-48-6-69.602-18l-420-230.4c-45.598-25.203-74.398-73.203-74.398-126v-451.2c0-52.801 28.801-100.8 74.398-126l420-230.4c43.199-24 94.801-24 138 0l420 230.4c45.602 25.199 74.398 73.199 74.398 126v451.2c0 52.801-28.801 100.8-74.398 126l-420 230.4c-20.398 12.004-44.398 18.004-68.398 18.004zm0-1152c-15.602 0-31.199 3.6016-46.801 12l-420 230.4c-31.199 16.801-49.199 49.199-49.199 84v451.2c0 34.801 19.199 67.199 49.199 84l420 230.4c28.801 15.602 63.602 15.602 92.398 0l420-230.4c31.199-16.801 50.398-49.199 50.398-84l0.003906-451.2c0-34.801-19.199-67.199-50.398-84l-420-230.4c-14.402-8.3984-30-12-45.602-12z"/>
  <path d="m600 948c-152.4 0-276-130.8-276-291.6 0-121.2 146.4-294 232.8-386.4 10.801-12 26.398-19.199 43.199-19.199s32.398 7.1992 43.199 19.199c86.398 92.398 232.8 264 232.8 386.4 0 160.8-123.6 291.6-276 291.6zm0-648c-2.3984 0-4.8008 0-8.3984 3.6016-51.602 54-219.6 241.2-219.6 352.8 0 134.4 102 243.6 228 243.6s228-109.2 228-243.6c0-111.6-168-298.8-219.6-352.8-3.5977-3.5977-6-3.5977-8.3984-3.5977z"/>
  <path d="m570 840c-76.801 0-138-75.602-138-168 0-13.199 10.801-24 24-24s24 10.801 24 24c0 66 40.801 120 90 120 7.1992 0 15.602-1.1992 22.801-3.6016 12-4.8008 26.398 2.3984 30 14.398 4.8008 12-2.3984 26.398-14.398 30-13.203 4.8047-25.203 7.2031-38.402 7.2031z"/>
 </g>
</svg>
