<?xml version="1.0" encoding="UTF-8"?>
<svg width="1200pt" height="1200pt" version="1.1" viewBox="0 0 1200 1200" xmlns="http://www.w3.org/2000/svg">
 <g>
  <path d="m1088.4 248.4-247.2-135.6c-1.1992-1.1992-3.6016-2.3984-4.8008-2.3984l-168-92.402c-43.199-24-94.801-24-138 0l-420 230.4c-45.598 25.203-74.398 73.203-74.398 126v451.2c0 52.801 28.801 100.8 74.398 126l247.2 135.6c1.1992 1.1992 3.6016 2.3984 4.8008 2.3984l166.8 91.199c21.602 12 45.602 18 69.602 18s48-6 68.398-18l420-230.4c45.602-25.199 74.398-73.199 74.398-126l0.003906-450c1.1992-52.797-27.602-100.8-73.203-126zm-21.598 42-159.6 110.4c-16.801 12-37.199 18-58.801 18l-189.6 0.003906c-19.199 0-36-13.199-37.199-31.199-2.3984-19.199 12-36 31.199-38.398h129.6c13.199 0 24-10.801 24-24s-10.801-24-24-24l-126-0.003906h-42c-4.8008 0-9.6016 1.1992-13.199 3.6016l-210 130.8c-16.801 8.3984-37.199 3.6016-49.199-12-7.1992-8.3984-9.6016-19.199-8.3984-30 1.1992-10.801 6-20.398 14.398-26.398l289.2-193.2c16.801-12 37.199-18 57.602-18h126l246 134.39c-1.1992 0-1.1992 0 0 0zm-495.6 548.4c-6 7.1992-14.398 10.801-24 12h-3.6016c-2.3984 0-4.8008 0-7.1992 1.1992h-118.8c-13.199 0-24 10.801-24 24s10.801 24 24 24h168c4.8008 0 9.6016-1.1992 13.199-3.6016l210-132c16.801-8.3984 37.199-3.6016 49.199 12 7.1992 8.3984 9.6016 19.199 8.3984 30-1.1992 10.801-6 20.398-14.398 26.398l-290.39 193.2c-16.801 12-37.199 18-57.602 18h-126l-243.6-134.4 158.4-109.2c16.801-12 37.199-18 58.801-18h189.6c19.199 0 36 13.199 37.199 31.199 1.2031 8.3984-1.1992 18-7.1992 25.199zm544.8-13.199c0 34.801-19.199 67.199-50.398 84l-420 230.4c-28.801 15.602-63.602 15.602-92.398 0l-87.602-48h39.602c30 0 58.801-8.3984 84-25.199l289.2-194.4 1.1992-1.1992c19.199-14.398 30-36 33.602-58.801 2.3984-22.801-3.6016-45.602-18-64.801-26.398-34.801-73.199-44.398-111.6-24-1.1992 1.1992-2.3984 1.1992-3.6016 2.3984l-153.6 96v-13.199c-4.8008-42-42-74.398-85.199-74.398l-189.6-0.003906c-31.199 0-61.199 8.3984-86.398 26.398l-166.8 115.2c-9.5977-14.398-14.398-32.398-14.398-50.398v-451.2c0-34.801 19.199-67.199 50.398-84l420-230.4c13.199-8.3984 30-12 45.602-12s32.398 3.6016 45.602 12l87.602 48h-38.398c-30 0-58.801 8.3984-84 25.199l-290.41 194.4-1.1992 1.1992c-19.199 14.398-30 36-33.602 58.801-2.3984 22.801 3.6016 45.602 18 64.801 16.801 22.801 43.199 34.801 69.602 34.801 14.398 0 28.801-3.6016 40.801-10.801 1.1992-1.1992 2.3984-1.1992 3.6016-2.3984l156-96v13.199c4.8008 42 42 74.398 85.199 74.398h189.6c31.199 0 61.199-8.3984 86.398-25.199l166.8-115.2c8.3984 14.398 14.398 31.199 14.398 49.199z"/>
  <path d="m771.6 500.4c-3.6016 0-73.199-7.1992-122.4 39.602-12 12-22.801 27.602-32.398 45.602-12-19.199-26.398-33.602-42-45.602-61.199-44.398-144-31.199-147.6-31.199-13.199 2.3984-22.801 14.398-20.398 27.602 1.1992 2.3984 13.199 86.398 74.398 130.8 24 18 54 28.801 88.801 32.398h7.1992c18 0 34.801-8.3984 46.801-22.801 9.6016 7.1992 20.398 12 31.199 12 3.6016 0 7.1992 0 10.801-1.1992 28.801-6 52.801-18 72-36 48-45.602 55.199-121.2 55.199-124.8 1.1953-13.199-8.4023-25.199-21.602-26.402zm-184.8 145.2c-2.3984 2.3984-6 6-12 4.8008-26.398-2.3984-48-10.801-64.801-22.801-27.602-19.199-42-50.398-49.199-73.199 24 0 58.801 4.8008 85.199 24 16.801 12 31.199 31.199 42 55.199 2.3984 4.7969 0 9.5977-1.1992 12zm117.6-27.602c-13.199 12-28.801 20.398-49.199 24 0 0-1.1992 0-2.3984-1.1992-1.1992-2.3984-3.6016-7.1992-1.1992-12 7.1992-22.801 18-40.801 30-52.801 18-16.801 40.801-22.801 57.602-25.199-4.8047 20.398-15.602 49.199-34.805 67.199z"/>
 </g>
</svg>
